<svg xmlns="http://www.w3.org/2000/svg" width="1024" height="1024" viewBox="0 0 1024 1024" version="1.1"><path d="M 526.287 152.740 C 529.469 152.939, 534.419 152.937, 537.287 152.736 C 540.154 152.535, 537.550 152.372, 531.500 152.374 C 525.450 152.376, 523.104 152.541, 526.287 152.740 M 511.578 158.180 C 509.610 160.479, 508 163.179, 508 164.180 C 508 165.748, 507.126 166, 501.696 166 C 494.981 166, 492.940 166.981, 482 175.463 C 477.558 178.907, 477.372 178.952, 467.560 178.976 C 457.773 179, 452.618 179.655, 438.210 182.708 C 427.209 185.039, 430.034 185.131, 443.018 182.865 C 449.333 181.763, 459.145 180.780, 464.822 180.681 L 475.144 180.500 478.072 183.766 L 481 187.032 481 325.962 L 481 464.893 475.534 468.521 C 449.946 485.506, 440.133 513.446, 449.875 541.585 L 452.961 550.500 360.219 643.250 C 269.732 733.746, 267.385 736, 263.673 736 C 261.581 736, 258.944 735.505, 257.814 734.900 C 256.393 734.140, 255.963 734.131, 256.421 734.873 C 256.786 735.462, 258.978 736.494, 261.292 737.166 C 266.604 738.707, 269.708 740.588, 273.500 744.565 C 275.150 746.296, 277.288 747.987, 278.250 748.324 C 279.212 748.661, 280 749.626, 280 750.469 C 280 751.311, 280.413 752, 280.917 752 C 281.422 752, 282.320 754.265, 282.914 757.033 C 283.507 759.801, 284.885 763.814, 285.975 765.951 C 288.595 771.087, 304.393 783.824, 322.500 795.399 C 325.800 797.509, 330.300 800.449, 332.500 801.934 C 340.906 807.607, 370.158 822.736, 376.004 824.434 C 377.377 824.833, 370.850 821.344, 361.500 816.681 C 331.723 801.830, 290.635 774.079, 287.173 766.480 C 285.868 763.616, 285.630 757.123, 286.765 755.358 C 287.825 753.712, 468.268 572.570, 469.779 571.636 C 470.536 571.169, 472.940 572.021, 475.772 573.761 C 501.367 589.494, 531.972 585.641, 552.220 564.137 C 559.315 556.602, 564.042 548.415, 566.591 539.246 L 568.328 533 641.414 532.961 C 681.611 532.939, 738.125 532.889, 767 532.848 C 795.875 532.808, 820.947 532.826, 822.715 532.888 C 826.289 533.013, 833 538.156, 833 540.770 C 833 541.630, 833.266 542.067, 833.591 541.742 C 834.692 540.642, 832.812 536.798, 829.241 532.846 C 826.553 529.869, 825.969 528.631, 826.844 527.756 C 828.531 526.069, 828.256 522.243, 826.372 521.188 C 825.258 520.565, 825.100 520.056, 825.872 519.579 C 826.492 519.196, 827 518.173, 827 517.306 C 827 515.275, 822.405 511.005, 820.198 510.985 C 818.256 510.967, 814.983 509.107, 816.500 508.883 C 817.050 508.802, 824.475 508.425, 833 508.047 C 841.525 507.668, 784.728 507.277, 706.785 507.179 L 565.070 507 563.900 504.750 C 563.256 503.512, 562.579 502.327, 562.396 502.115 C 562.214 501.904, 558.509 504.935, 554.164 508.852 L 546.265 515.973 545.758 523.237 C 545.043 533.485, 541.933 540.878, 535.343 547.996 C 523.573 560.709, 506.845 564.072, 491.351 556.841 C 484.754 553.762, 476.490 545.293, 473.227 538.268 C 470.892 533.242, 470.545 531.213, 470.524 522.500 C 470.503 513.714, 470.825 511.806, 473.180 506.782 C 481.788 488.416, 502.674 479.483, 521.172 486.253 L 527.845 488.695 535.411 481.890 L 542.978 475.085 539.732 472.609 C 534.801 468.848, 526.308 465.214, 518.250 463.416 L 511 461.799 511 310.823 L 511 159.846 513.923 156.923 C 515.531 155.315, 516.466 154, 516.001 154 C 515.536 154, 513.546 155.881, 511.578 158.180 M 564 155.528 C 574.659 157.155, 576.956 157.137, 570.500 155.477 C 567.750 154.770, 563.250 154.201, 560.500 154.211 C 556.247 154.228, 556.771 154.425, 564 155.528 M 579.500 158 C 581.150 158.420, 583.400 158.810, 584.500 158.866 C 586.146 158.951, 586.234 158.798, 585 158 C 584.175 157.467, 581.925 157.077, 580 157.134 L 576.500 157.237 579.500 158 M 606 164.008 C 611.775 165.580, 618.729 167.554, 621.453 168.396 C 624.178 169.238, 626.587 169.747, 626.806 169.527 C 627.026 169.307, 623.222 167.950, 618.353 166.511 C 613.484 165.073, 607.390 163.244, 604.812 162.448 C 602.234 161.651, 599.084 161.034, 597.812 161.075 C 596.540 161.117, 600.225 162.437, 606 164.008 M 422.500 185.700 C 417.416 186.890, 409.884 189.217, 410.176 189.509 C 410.354 189.687, 414.775 188.775, 420 187.482 C 425.225 186.190, 428.375 185.154, 427 185.182 C 425.625 185.209, 423.600 185.443, 422.500 185.700 M 665.083 185.384 C 666.342 186.543, 682.096 193.964, 681.602 193.165 C 681.277 192.640, 677.640 190.588, 673.518 188.605 C 666.836 185.391, 663.854 184.252, 665.083 185.384 M 389.188 195.683 C 386.816 196.522, 385.052 197.385, 385.268 197.601 C 385.484 197.817, 388.099 197.128, 391.080 196.070 C 394.061 195.012, 395.825 194.149, 395 194.152 C 394.175 194.155, 391.559 194.844, 389.188 195.683 M 684.527 195.330 C 688.264 197.849, 698 203.146, 698 202.660 C 698 202.100, 684.148 194, 683.190 194 C 682.841 194, 683.443 194.598, 684.527 195.330 M 702.500 205.739 C 703.050 206.282, 707.100 209.114, 711.500 212.032 C 715.900 214.949, 722.200 219.371, 725.500 221.858 C 728.800 224.345, 730.624 225.373, 729.553 224.143 C 728.482 222.913, 722.192 218.215, 715.575 213.703 C 704.018 205.823, 700.287 203.551, 702.500 205.739 M 737.500 231.191 C 740.250 233.550, 745.425 238.171, 749 241.459 L 755.500 247.437 749 240.657 C 745.425 236.928, 740.250 232.307, 737.500 230.389 L 732.500 226.900 737.500 231.191 M 765 256.621 C 765 257.146, 767.362 259.808, 770.250 262.538 L 775.500 267.500 770.500 262.021 C 767.750 259.008, 765.388 256.345, 765.250 256.104 C 765.112 255.864, 765 256.096, 765 256.621 M 269.473 272.250 L 262.500 279.500 269.750 272.527 C 276.484 266.050, 277.457 265, 276.723 265 C 276.571 265, 273.308 268.262, 269.473 272.250 M 780.484 274.250 C 783.101 277.413, 785.468 280, 785.744 280 C 786.459 280, 784.114 277.131, 779.612 272.500 C 776.477 269.274, 776.646 269.613, 780.484 274.250 M 800.592 301.250 C 802.622 304.413, 804.470 307, 804.698 307 C 805.368 307, 801.750 301.204, 799.226 298.235 C 797.947 296.731, 798.562 298.087, 800.592 301.250 M 855.648 435.500 C 855.982 438.250, 856.424 440.688, 856.628 440.917 C 857.411 441.794, 856.815 434.401, 855.949 432.500 C 855.336 431.154, 855.238 432.134, 855.648 435.500 M 858.712 454 C 859.016 457.575, 859.430 460.688, 859.633 460.917 C 860.301 461.675, 859.778 453.555, 858.961 450.500 C 858.456 448.610, 858.364 449.904, 858.712 454 M 178.637 453.132 C 176.867 462.240, 175.935 470.205, 175.535 479.626 L 175.075 490.500 176.413 478.500 C 177.149 471.900, 178.270 463.176, 178.906 459.114 C 179.541 455.051, 179.844 451.510, 179.579 451.246 C 179.314 450.981, 178.890 451.830, 178.637 453.132 M 174.349 513 C 174.349 517.675, 174.522 519.587, 174.732 517.250 C 174.943 514.913, 174.943 511.087, 174.732 508.750 C 174.522 506.413, 174.349 508.325, 174.349 513 M 175.544 545 C 175.777 551.325, 176.415 557.850, 176.962 559.500 C 177.994 562.609, 177.947 561.808, 175.920 541.500 C 175.211 534.397, 175.169 534.789, 175.544 545 M 833.185 557.125 C 833.083 559.119, 832.745 562.269, 832.433 564.125 C 831.973 566.867, 832.077 567.171, 832.986 565.746 C 833.601 564.781, 833.939 561.631, 833.737 558.746 C 833.479 555.053, 833.315 554.573, 833.185 557.125 M 178.130 568 C 178.075 570.475, 178.467 573.175, 179 574 C 179.801 575.239, 179.962 575.152, 179.927 573.500 C 179.904 572.400, 179.512 569.700, 179.057 567.500 L 178.230 563.500 178.130 568 M 830.205 577.500 C 827.827 592.200, 827.868 591.845, 828.883 589 C 830.632 584.097, 832.184 575.451, 831.845 572.500 C 831.615 570.499, 831.069 572.163, 830.205 577.500 M 825.742 599.060 C 824.778 603.152, 823.700 607.625, 823.347 609 C 822.994 610.375, 823 611.234, 823.360 610.909 C 824.368 610, 828.135 594.942, 827.796 593.179 C 827.631 592.321, 826.707 594.968, 825.742 599.060 M 813.741 637.741 C 811.707 643.040, 810.203 647.537, 810.400 647.734 C 810.597 647.930, 812.434 643.767, 814.481 638.481 C 816.529 633.196, 818.033 628.699, 817.822 628.489 C 817.611 628.278, 815.775 632.441, 813.741 637.741 M 803.315 662.068 C 801.580 665.881, 800.373 669, 800.633 669 C 801.306 669, 807.313 655.980, 806.852 655.519 C 806.642 655.309, 805.051 658.256, 803.315 662.068 M 796.705 675.528 C 795.229 678.538, 794.234 681, 794.494 681 C 795.167 681, 800.211 670.878, 799.762 670.429 C 799.557 670.224, 798.182 672.518, 796.705 675.528 M 212.018 671.354 C 211.990 672.701, 218.825 685.235, 221.097 688 C 222.654 689.896, 222.533 689.400, 220.595 685.945 C 219.189 683.440, 216.688 678.940, 215.038 675.945 C 213.387 672.950, 212.028 670.884, 212.018 671.354 M 779.592 704.750 C 777.562 707.913, 776.947 709.269, 778.226 707.765 C 780.750 704.796, 784.368 699, 783.698 699 C 783.470 699, 781.622 701.587, 779.592 704.750 M 389.500 829.782 C 390.322 830.667, 410.541 837.572, 422.500 841.053 C 430.970 843.518, 442.108 845.972, 447 846.452 C 450.934 846.837, 449.505 846.314, 441.980 844.615 C 424.227 840.605, 405.106 834.977, 390.500 829.461 C 389.094 828.930, 388.797 829.025, 389.500 829.782 M 454.500 847.946 C 456.391 848.810, 465.804 849.423, 464.917 848.625 C 464.688 848.419, 461.800 847.977, 458.500 847.642 C 454.541 847.240, 453.180 847.344, 454.500 847.946 M 555.500 848 L 551.500 848.716 555.500 848.758 C 557.700 848.782, 560.625 848.440, 562 848 L 564.500 847.199 562 847.242 C 560.625 847.265, 557.700 847.606, 555.500 848 M 469.500 850.012 C 473.456 850.875, 483.722 851.347, 482.917 850.628 C 482.688 850.424, 478.675 850.005, 474 849.698 C 467.930 849.299, 466.643 849.389, 469.500 850.012 M 538 850 L 531.500 850.655 537 850.770 C 540.025 850.833, 544.300 850.512, 546.500 850.057 C 549.737 849.388, 549.928 849.241, 547.500 849.288 C 545.850 849.319, 541.575 849.640, 538 850 M 489.500 852.022 C 493.611 853.038, 520.571 853.074, 525.500 852.070 C 528.041 851.552, 521.656 851.259, 508 851.267 C 496.175 851.274, 487.850 851.614, 489.500 852.022" stroke="none" fill="#f9f8f8" fill-rule="evenodd"/><path d="M 519.094 154.283 C 517.220 154.952, 514.745 156.770, 513.594 158.323 L 511.500 161.146 511.240 311.573 L 510.981 462 514.064 462 C 520.936 462, 543 471.745, 543 474.779 C 543 475.526, 539.104 479.396, 531.288 486.416 L 528.076 489.301 523.788 487.668 C 512.450 483.350, 501.968 483.579, 491.494 488.374 C 473.730 496.507, 465.771 519.302, 473.996 538.490 C 476.903 545.273, 484.923 553.229, 492.278 556.626 C 497.777 559.166, 499.604 559.496, 508 559.464 C 516.401 559.432, 518.194 559.092, 523.500 556.524 C 530.824 552.978, 537.988 545.831, 541.357 538.711 C 544.054 533.009, 546.541 521.177, 545.710 517.999 C 545.330 516.545, 546.983 514.496, 552.352 509.766 C 563.517 499.932, 562.854 500.281, 564.018 503.622 L 565.021 506.500 708.261 506.251 C 812.390 506.070, 852.260 505.692, 854.284 504.866 C 859.660 502.671, 861 499.670, 861 489.822 C 861 456.252, 850.297 406.606, 834.520 367 C 792.055 260.392, 702.430 185.111, 588.700 160.522 C 564.828 155.361, 525.852 151.867, 519.094 154.283 M 520.562 155.069 C 515.359 155.964, 513.018 158.970, 512.935 164.861 C 512.899 167.412, 512.786 235.088, 512.685 315.250 L 512.500 461 514.698 461 C 519.203 461, 533.058 466.175, 538.682 469.958 C 544.309 473.743, 544.566 473.814, 546.500 472.100 C 556.399 463.330, 600.943 423.311, 610.035 415.019 C 616.379 409.234, 632.354 394.784, 645.535 382.909 C 658.716 371.034, 678.670 353.034, 689.879 342.909 C 726.954 309.417, 726.188 310.010, 732.434 310.004 C 737.772 309.999, 744.488 313.436, 746.962 317.439 C 749.498 321.542, 749.629 328.430, 747.250 332.596 C 745.552 335.569, 740.180 340.635, 706.474 371.042 C 688.401 387.347, 642.349 429.142, 619 450.431 C 610.475 458.204, 594.612 472.555, 583.750 482.323 C 572.888 492.091, 564 500.259, 564 500.476 C 564 500.693, 564.396 501.912, 564.880 503.185 L 565.760 505.500 709.962 505 L 854.164 504.500 857.082 501.234 C 859.783 498.212, 860 497.382, 860 490.090 C 860 466.837, 853.664 428.955, 844.933 400 C 821.932 323.725, 777.748 260.856, 716.651 217.468 C 666.674 181.977, 599.512 157.978, 543 155.418 C 536.675 155.131, 529.925 154.783, 528 154.645 C 526.075 154.506, 522.728 154.697, 520.562 155.069" stroke="none" fill="#283133" fill-rule="evenodd"/><path d="M 517.481 154.815 C 517.923 155.257, 513.612 159.678, 513 159.410 C 512.725 159.290, 512.500 227.098, 512.500 310.096 L 512.500 461 515.500 461.015 C 517.819 461.027, 518.160 461.254, 517 462.014 C 515.944 462.706, 516.508 462.803, 518.905 462.343 C 521.199 461.902, 522.097 462.035, 521.654 462.751 C 521.234 463.431, 521.774 463.610, 523.155 463.249 C 524.538 462.888, 525.076 463.067, 524.655 463.749 C 524.234 464.431, 524.772 464.611, 526.155 464.249 C 527.762 463.829, 528.106 464.020, 527.502 464.997 C 526.962 465.870, 527.081 466.068, 527.854 465.590 C 529.490 464.579, 533.170 465.916, 532.360 467.227 C 531.958 467.878, 532.158 468.020, 532.864 467.584 C 534.472 466.590, 541.192 470.858, 540.346 472.335 C 539.979 472.976, 540.036 473.178, 540.471 472.785 C 540.907 472.392, 542.028 472.480, 542.964 472.981 C 544.333 473.713, 549.136 469.873, 567.582 453.298 C 603.852 420.708, 627.946 398.960, 634.472 392.922 C 637.787 389.855, 649.950 378.870, 661.500 368.512 C 673.050 358.154, 690.976 341.989, 701.335 332.589 C 711.694 323.190, 721.999 314.262, 724.235 312.750 C 729.223 309.376, 734.619 309.153, 740.647 312.071 C 746.025 314.675, 749 319.327, 749 325.134 C 749 332.885, 750.172 331.620, 706.474 371.042 C 687.998 387.711, 641.631 429.794, 619 450.437 C 610.475 458.212, 594.836 472.353, 584.246 481.861 C 573.656 491.368, 564.499 500.068, 563.896 501.194 C 563.272 502.361, 563.225 502.979, 563.787 502.632 C 564.329 502.297, 564.977 502.805, 565.227 503.761 C 565.657 505.406, 573.505 505.473, 709.923 505 L 854.164 504.500 857.162 501.145 L 860.159 497.791 859.829 481.507 C 859.648 472.550, 859.224 465.661, 858.888 466.197 C 858.016 467.586, 856.748 453.422, 857.503 450.734 C 858.016 448.908, 857.922 448.774, 856.986 450 C 856.091 451.172, 855.952 450.528, 856.352 447.052 C 856.711 443.922, 856.568 443.033, 855.867 444.052 C 855.144 445.102, 854.969 444.490, 855.226 441.820 C 855.428 439.732, 855.182 438.388, 854.657 438.712 C 854.132 439.036, 853.928 437.945, 854.185 436.195 C 854.451 434.383, 854.244 433.349, 853.685 433.695 C 853.125 434.040, 852.919 433.007, 853.185 431.195 C 853.434 429.496, 853.309 428.309, 852.908 428.557 C 851.884 429.190, 850.675 421.335, 851.573 419.882 C 852.066 419.084, 851.881 418.956, 851.010 419.494 C 850.032 420.098, 849.834 419.649, 850.211 417.679 C 850.517 416.077, 850.323 415.301, 849.711 415.679 C 849.098 416.057, 848.904 415.281, 849.211 413.679 C 849.486 412.239, 849.363 411.276, 848.937 411.539 C 847.872 412.197, 846.678 406.329, 847.580 404.870 C 848.017 404.163, 847.880 403.956, 847.236 404.354 C 845.942 405.154, 844.521 399.585, 845.580 397.870 C 846.068 397.080, 845.876 396.959, 844.997 397.502 C 844.020 398.106, 843.829 397.762, 844.249 396.155 C 844.560 394.968, 844.453 394.220, 844.013 394.492 C 842.952 395.148, 841.748 390.217, 842.624 388.800 C 843.068 388.082, 842.847 387.977, 841.997 388.502 C 841.020 389.106, 840.829 388.762, 841.249 387.155 C 841.611 385.772, 841.431 385.234, 840.749 385.655 C 840.067 386.076, 839.888 385.538, 840.249 384.155 C 840.611 382.772, 840.431 382.234, 839.749 382.655 C 839.067 383.076, 838.888 382.538, 839.249 381.155 C 839.560 379.968, 839.438 379.229, 838.979 379.513 C 837.850 380.211, 836.688 376.314, 837.590 374.854 C 838.068 374.081, 837.870 373.962, 836.997 374.502 C 836.020 375.106, 835.829 374.762, 836.249 373.155 C 836.560 371.968, 836.438 371.229, 835.979 371.513 C 834.850 372.211, 833.688 368.314, 834.590 366.854 C 835.020 366.158, 834.874 365.960, 834.227 366.360 C 832.916 367.170, 831.579 363.490, 832.590 361.854 C 833.070 361.077, 832.869 360.963, 831.985 361.510 C 830.992 362.123, 830.841 361.856, 831.383 360.445 C 831.780 359.409, 831.774 358.892, 831.370 359.297 C 830.388 360.279, 827.828 354.087, 828.659 352.742 C 829.069 352.080, 828.819 351.994, 827.985 352.510 C 826.992 353.123, 826.841 352.856, 827.383 351.445 C 827.780 350.409, 827.779 349.888, 827.380 350.287 C 826.417 351.250, 815.889 329.989, 816.688 328.696 C 817.068 328.081, 816.795 328.008, 815.985 328.510 C 815.015 329.109, 814.836 328.868, 815.319 327.612 C 815.681 326.668, 815.615 326.120, 815.172 326.394 C 813.967 327.138, 810.773 321.190, 811.603 319.748 C 811.998 319.062, 811.951 318.835, 811.500 319.244 C 810.338 320.297, 807.734 316.257, 808.602 314.748 C 808.997 314.062, 808.951 313.835, 808.500 314.244 C 807.427 315.216, 804.694 311.305, 805.516 309.973 C 805.864 309.411, 805.553 309.074, 804.824 309.225 C 804.073 309.381, 803.565 308.714, 803.650 307.683 C 803.733 306.684, 803.541 306.125, 803.225 306.441 C 802.368 307.298, 799.017 301.782, 799.711 300.658 C 800.040 300.126, 799.790 300.012, 799.155 300.405 C 798.124 301.042, 797.551 299.847, 797.882 297.750 C 797.947 297.337, 797.438 297.112, 796.750 297.250 C 796.063 297.387, 795.562 296.717, 795.637 295.761 C 795.712 294.804, 795.426 294.237, 795 294.500 C 793.784 295.251, 791.744 292.223, 792.568 290.889 C 793.025 290.151, 792.885 289.953, 792.205 290.373 C 790.916 291.170, 788.728 287.642, 789.785 286.471 C 790.178 286.036, 789.960 285.989, 789.300 286.368 C 787.927 287.155, 785.688 283.686, 786.785 282.471 C 787.178 282.036, 786.968 281.984, 786.318 282.356 C 784.923 283.156, 781.802 279.129, 782.696 277.683 C 783.033 277.137, 782.824 276.991, 782.231 277.357 C 780.938 278.156, 776.747 272.620, 777.780 271.477 C 778.176 271.038, 777.974 270.981, 777.330 271.349 C 776.086 272.062, 769.772 265.179, 770.536 263.942 C 770.779 263.549, 770.308 262.671, 769.489 261.991 C 768.670 261.311, 768 261.138, 768 261.607 C 768 262.075, 763.973 258.450, 759.051 253.551 C 754.129 248.652, 750.299 244.325, 750.540 243.935 C 750.781 243.545, 750.308 242.671, 749.489 241.991 C 748.670 241.311, 748 241.058, 748 241.428 C 748 241.799, 746.439 240.911, 744.532 239.456 C 742.624 238.001, 741.161 236.516, 741.282 236.155 C 741.402 235.795, 741.275 235.498, 741 235.496 C 739.555 235.485, 734.062 230.709, 734.563 229.899 C 734.885 229.377, 734.778 229.057, 734.324 229.188 C 732.679 229.661, 728.950 226.889, 729.632 225.700 C 730.011 225.040, 729.964 224.822, 729.529 225.215 C 728.314 226.312, 724.845 224.073, 725.632 222.700 C 726.011 222.040, 725.964 221.822, 725.529 222.215 C 724.537 223.110, 720.769 221.182, 721.428 220.116 C 721.694 219.686, 721.355 219.333, 720.675 219.333 C 718.689 219.333, 713.964 215.868, 714.583 214.866 C 714.894 214.362, 714.778 214.015, 714.324 214.094 C 712.282 214.448, 710.936 213.912, 711.515 212.975 C 711.864 212.412, 711.778 212.015, 711.324 212.094 C 709.282 212.448, 707.936 211.912, 708.515 210.975 C 708.864 210.412, 708.778 210.015, 708.324 210.094 C 706.282 210.448, 704.936 209.912, 705.515 208.975 C 705.864 208.412, 705.778 208.015, 705.324 208.094 C 703.194 208.464, 701.948 207.894, 702.595 206.845 C 703.037 206.131, 702.870 205.962, 702.156 206.403 C 700.735 207.282, 696.726 204.637, 697.756 203.500 C 698.165 203.049, 697.938 203.003, 697.252 203.398 C 695.743 204.266, 691.703 201.662, 692.756 200.500 C 693.165 200.049, 692.938 200.002, 692.252 200.397 C 690.810 201.227, 684.862 198.033, 685.606 196.828 C 685.880 196.385, 685.332 196.319, 684.388 196.681 C 683.132 197.164, 682.891 196.985, 683.490 196.015 C 683.973 195.234, 683.918 194.933, 683.356 195.280 C 682.116 196.047, 660.812 185.521, 661.736 184.598 C 662.122 184.211, 661.591 184.220, 660.555 184.617 C 659.144 185.159, 658.877 185.008, 659.490 184.015 C 660.050 183.111, 659.924 182.929, 659.094 183.442 C 657.602 184.364, 651.816 182.107, 652.565 180.895 C 652.861 180.416, 652.490 180.259, 651.739 180.547 C 650.198 181.138, 641.702 177.631, 642.571 176.762 C 642.880 176.453, 642.541 176.226, 641.817 176.258 C 638.658 176.396, 636.923 175.934, 637.442 175.093 C 637.751 174.595, 637.032 174.440, 635.845 174.751 C 634.238 175.171, 633.894 174.980, 634.498 174.003 C 635.015 173.166, 634.918 172.933, 634.229 173.359 C 632.912 174.172, 618.923 169.934, 619.554 168.913 C 619.801 168.513, 619.032 168.440, 617.845 168.751 C 616.238 169.171, 615.894 168.980, 616.498 168.003 C 617.041 167.124, 616.920 166.932, 616.130 167.420 C 614.671 168.322, 608.803 167.128, 609.461 166.063 C 609.724 165.637, 608.761 165.514, 607.321 165.789 C 605.351 166.166, 604.902 165.968, 605.506 164.990 C 606.039 164.128, 605.916 163.934, 605.139 164.414 C 603.486 165.436, 592.927 162.928, 593.689 161.694 C 594.047 161.116, 593.805 161.003, 593.118 161.427 C 591.353 162.518, 583.858 161.040, 584.650 159.757 C 585.048 159.114, 584.833 158.985, 584.108 159.433 C 582.309 160.545, 572.866 159.026, 573.654 157.752 C 574.050 157.110, 573.830 156.987, 573.095 157.441 C 572.428 157.854, 568.702 157.872, 564.816 157.482 C 560.930 157.091, 558.208 156.486, 558.766 156.136 C 559.325 155.786, 552.518 155.329, 543.641 155.120 C 534.763 154.910, 525.175 154.685, 522.333 154.620 C 519.491 154.554, 517.308 154.642, 517.481 154.815 M 480.343 266.500 C 480.346 270.900, 480.522 272.576, 480.733 270.224 C 480.945 267.872, 480.942 264.272, 480.727 262.224 C 480.512 260.176, 480.339 262.100, 480.343 266.500 M 480.310 298.500 C 480.315 301.800, 480.502 303.029, 480.725 301.232 C 480.947 299.435, 480.943 296.735, 480.715 295.232 C 480.486 293.729, 480.304 295.200, 480.310 298.500 M 480.320 324 C 480.320 327.575, 480.502 329.038, 480.723 327.250 C 480.945 325.462, 480.945 322.538, 480.723 320.750 C 480.502 318.962, 480.320 320.425, 480.320 324 M 480.450 392.500 C 480.451 411.750, 480.585 419.483, 480.749 409.685 C 480.913 399.888, 480.912 384.138, 480.748 374.685 C 480.584 365.233, 480.450 373.250, 480.450 392.500 M 480.320 443 C 480.320 446.575, 480.502 448.038, 480.723 446.250 C 480.945 444.462, 480.945 441.538, 480.723 439.750 C 480.502 437.962, 480.320 439.425, 480.320 443 M 637.750 506.750 C 676.388 506.895, 739.613 506.895, 778.250 506.750 C 816.888 506.605, 785.275 506.486, 708 506.486 C 630.725 506.486, 599.113 506.605, 637.750 506.750" stroke="none" fill="#26425a" fill-rule="evenodd"/><path d="M 641.912 532.756 L 568.324 533.013 566.589 539.253 C 564.042 548.415, 559.314 556.604, 552.220 564.137 C 531.972 585.641, 501.367 589.494, 475.772 573.761 C 472.940 572.021, 470.536 571.169, 469.779 571.636 C 468.268 572.570, 287.825 753.712, 286.765 755.358 C 285.630 757.123, 285.868 763.616, 287.173 766.480 C 289.174 770.873, 309.306 786.107, 331.345 799.906 C 374.292 826.796, 422.415 843.589, 473.392 849.476 C 489.427 851.327, 521.119 851.585, 538.130 850.002 C 606.813 843.612, 668.711 816.630, 723.140 769.355 C 775.294 724.057, 813.903 657.331, 828.367 587.500 C 831.674 571.535, 834.352 549.815, 833.713 544.143 C 833.064 538.391, 827.882 533.063, 822.765 532.888 C 814.432 532.603, 708.206 532.525, 641.912 532.756" stroke="none" fill="#dbe1e5" fill-rule="evenodd"/><path d="M 455 181.505 C 436.051 183.828, 406 190.388, 406 192.200 C 406 192.705, 405.610 192.877, 405.133 192.582 C 404.075 191.928, 384.795 198.352, 372.500 203.456 C 356.485 210.103, 336.419 220.872, 321.034 231.075 C 312.765 236.559, 306 241.486, 306 242.023 C 306 242.560, 305.482 243, 304.849 243 C 302.642 243, 284.406 258.580, 271.499 271.493 C 212.877 330.139, 178.504 412.506, 175.359 501.866 C 173.558 553.063, 184.285 608.495, 204.994 655 C 216.740 681.378, 235.943 711.741, 251.973 729.280 C 257.664 735.507, 261.855 737.131, 266.873 735.053 C 268.435 734.406, 310.955 692.569, 361.364 642.082 L 453.015 550.288 451.044 545.831 C 447.657 538.176, 446 529.913, 446 520.684 C 446 504.589, 451.080 491.831, 462.565 479.078 C 466.104 475.149, 469 472.171, 469 472.460 C 469 472.750, 470.999 471.461, 473.442 469.596 C 475.885 467.731, 478.406 466.031, 479.045 465.818 C 479.916 465.528, 480.250 430.792, 480.387 326.131 C 480.587 173.008, 481.049 184.172, 474.401 181.394 C 470.519 179.772, 469.057 179.781, 455 181.505" stroke="none" fill="#6593b2" fill-rule="evenodd"/></svg>